<svg width="32" height="32" viewBox="0 0 512 512" xmlns="http://www.w3.org/2000/svg">
  <style>
    #spiral {
      fill: black;
    }
    @media (prefers-color-scheme: dark) {
      #spiral {
        fill: white;
      }
    }
  </style>
  <path id="spiral" d="M256,0C114.6,0,0,114.6,0,256s114.6,256,256,256s256-114.6,256-256S397.4,0,256,0z M256,464c-114.9,0-208-93.1-208-208S141.1,48,256,48s208,93.1,208,208S370.9,464,256,464z M256,128c-70.7,0-128,57.3-128,128s57.3,128,128,128s128-57.3,128-128S326.7,128,256,128z M256,336c-44.1,0-80-35.9-80-80s35.9-80,80-80s80,35.9,80,80S300.1,336,256,336z"/>
</svg>
